%TF.GenerationSoftware,KiCad,Pcbnew,(6.0.7)*%
%TF.CreationDate,2022-09-23T13:32:51-07:00*%
%TF.ProjectId,saras_ckt,73617261-735f-4636-9b74-2e6b69636164,rev?*%
%TF.SameCoordinates,Original*%
%TF.FileFunction,Copper,L1,Top*%
%TF.FilePolarity,Positive*%
%FSLAX46Y46*%
G04 Gerber Fmt 4.6, Leading zero omitted, Abs format (unit mm)*
G04 Created by KiCad (PCBNEW (6.0.7)) date 2022-09-23 13:32:51*
%MOMM*%
%LPD*%
G01*
G04 APERTURE LIST*
G04 Aperture macros list*
%AMRoundRect*
0 Rectangle with rounded corners*
0 $1 Rounding radius*
0 $2 $3 $4 $5 $6 $7 $8 $9 X,Y pos of 4 corners*
0 Add a 4 corners polygon primitive as box body*
4,1,4,$2,$3,$4,$5,$6,$7,$8,$9,$2,$3,0*
0 Add four circle primitives for the rounded corners*
1,1,$1+$1,$2,$3*
1,1,$1+$1,$4,$5*
1,1,$1+$1,$6,$7*
1,1,$1+$1,$8,$9*
0 Add four rect primitives between the rounded corners*
20,1,$1+$1,$2,$3,$4,$5,0*
20,1,$1+$1,$4,$5,$6,$7,0*
20,1,$1+$1,$6,$7,$8,$9,0*
20,1,$1+$1,$8,$9,$2,$3,0*%
G04 Aperture macros list end*
%TA.AperFunction,SMDPad,CuDef*%
%ADD10RoundRect,0.075000X-0.212500X-0.075000X0.212500X-0.075000X0.212500X0.075000X-0.212500X0.075000X0*%
%TD*%
%TA.AperFunction,ComponentPad*%
%ADD11C,2.032000*%
%TD*%
%TA.AperFunction,SMDPad,CuDef*%
%ADD12R,1.168400X0.558800*%
%TD*%
%TA.AperFunction,SMDPad,CuDef*%
%ADD13R,0.558800X1.320800*%
%TD*%
%TA.AperFunction,Conductor*%
%ADD14C,0.250000*%
%TD*%
%TA.AperFunction,Conductor*%
%ADD15C,0.300000*%
%TD*%
G04 APERTURE END LIST*
D10*
%TO.P,R3,2*%
%TO.N,Net-(R3-Pad2)*%
X148074200Y-131991000D03*
%TO.P,R3,1*%
%TO.N,Net-(LED1-Pad1)*%
X147399200Y-131991000D03*
%TD*%
%TO.P,R2,2*%
%TO.N,GND*%
X125037201Y-138595000D03*
%TO.P,R2,1*%
%TO.N,Net-(R1-Pad2)*%
X124362201Y-138595000D03*
%TD*%
D11*
%TO.P,J2,2,2*%
%TO.N,GND*%
X180076700Y-126475000D03*
%TO.P,J2,1,1*%
%TO.N,Net-(J2-Pad1)*%
X175076700Y-126475000D03*
%TD*%
%TO.P,J1,1,1*%
%TO.N,Net-(J1-Pad1)*%
X115576700Y-126475000D03*
%TO.P,J1,2,2*%
%TO.N,GND*%
X120576700Y-126475000D03*
%TD*%
D10*
%TO.P,R1,2*%
%TO.N,Net-(R1-Pad2)*%
X121658200Y-136309000D03*
%TO.P,R1,1*%
%TO.N,Net-(J1-Pad1)*%
X120983200Y-136309000D03*
%TD*%
D12*
%TO.P,LED1,4*%
%TO.N,N/C*%
X149448300Y-125950000D03*
%TO.P,LED1,3*%
X146705100Y-125950000D03*
%TO.P,LED1,2,2*%
%TO.N,Net-(J2-Pad1)*%
X149448300Y-127000000D03*
%TO.P,LED1,1,1*%
%TO.N,Net-(LED1-Pad1)*%
X146705100Y-127000000D03*
%TD*%
D13*
%TO.P,U1,3,COLLECTOR*%
%TO.N,Net-(R3-Pad2)*%
X136133700Y-143335750D03*
%TO.P,U1,2,EMITTER*%
%TO.N,GND*%
X137086200Y-145128200D03*
%TO.P,U1,1,BASE*%
%TO.N,Net-(R1-Pad2)*%
X135181200Y-145128200D03*
%TD*%
D14*
%TO.N,Net-(J1-Pad1)*%
X118272700Y-136309000D02*
X120983200Y-136309000D01*
X115576700Y-126475000D02*
X115576700Y-133613000D01*
X115576700Y-133613000D02*
X118272700Y-136309000D01*
D15*
%TO.N,Net-(J2-Pad1)*%
X174551700Y-127000000D02*
X175076700Y-126475000D01*
X149448300Y-127000000D02*
X174551700Y-127000000D01*
%TO.N,Net-(LED1-Pad1)*%
X147399200Y-131932900D02*
X146695300Y-131229000D01*
X147399200Y-131991000D02*
X147399200Y-131932900D01*
X146695300Y-131229000D02*
X146705100Y-131219200D01*
X146705100Y-131219200D02*
X146705100Y-127000000D01*
D14*
%TO.N,Net-(R1-Pad2)*%
X124362201Y-138595000D02*
X124362201Y-146208501D01*
X134655700Y-147485000D02*
X135189100Y-146951600D01*
X124362201Y-138080501D02*
X124362201Y-138595000D01*
X121658200Y-136309000D02*
X122590700Y-136309000D01*
X124362201Y-146208501D02*
X125638700Y-147485000D01*
X125638700Y-147485000D02*
X134274700Y-147485000D01*
X135189100Y-146951600D02*
X135181200Y-146943700D01*
X122590700Y-136309000D02*
X124362201Y-138080501D01*
X125638700Y-147485000D02*
X134655700Y-147485000D01*
X135181200Y-146943700D02*
X135181200Y-145128200D01*
D15*
%TO.N,Net-(R3-Pad2)*%
X136133700Y-142324000D02*
X139862700Y-138595000D01*
X136133700Y-142324000D02*
X136133700Y-143335750D01*
X148074200Y-136225500D02*
X148074200Y-131991000D01*
X139862700Y-138595000D02*
X145704700Y-138595000D01*
X145704700Y-138595000D02*
X148074200Y-136225500D01*
%TD*%
%TA.AperFunction,Conductor*%
%TO.N,GND*%
G36*
X193433621Y-100528502D02*
G01*
X193480114Y-100582158D01*
X193491500Y-100634500D01*
X193491500Y-154365500D01*
X193471498Y-154433621D01*
X193417842Y-154480114D01*
X193365500Y-154491500D01*
X100634500Y-154491500D01*
X100566379Y-154471498D01*
X100519886Y-154417842D01*
X100508500Y-154365500D01*
X100508500Y-148000000D01*
X103486540Y-148000000D01*
X103506359Y-148315020D01*
X103565505Y-148625072D01*
X103663044Y-148925266D01*
X103664731Y-148928852D01*
X103664733Y-148928856D01*
X103795750Y-149207283D01*
X103795754Y-149207290D01*
X103797438Y-149210869D01*
X103966568Y-149477375D01*
X104167767Y-149720582D01*
X104397860Y-149936654D01*
X104653221Y-150122184D01*
X104929821Y-150274247D01*
X104933490Y-150275700D01*
X104933495Y-150275702D01*
X105219628Y-150388990D01*
X105223298Y-150390443D01*
X105529025Y-150468940D01*
X105842179Y-150508500D01*
X106157821Y-150508500D01*
X106470975Y-150468940D01*
X106776702Y-150390443D01*
X106780372Y-150388990D01*
X107066505Y-150275702D01*
X107066510Y-150275700D01*
X107070179Y-150274247D01*
X107346779Y-150122184D01*
X107602140Y-149936654D01*
X107832233Y-149720582D01*
X108033432Y-149477375D01*
X108202562Y-149210869D01*
X108204246Y-149207290D01*
X108204250Y-149207283D01*
X108335267Y-148928856D01*
X108335269Y-148928852D01*
X108336956Y-148925266D01*
X108434495Y-148625072D01*
X108493641Y-148315020D01*
X108513460Y-148000000D01*
X108493641Y-147684980D01*
X108434495Y-147374928D01*
X108336956Y-147074734D01*
X108335267Y-147071144D01*
X108204250Y-146792717D01*
X108204246Y-146792710D01*
X108202562Y-146789131D01*
X108033432Y-146522625D01*
X107846447Y-146296600D01*
X107834758Y-146282470D01*
X107834757Y-146282469D01*
X107832233Y-146279418D01*
X107816028Y-146264200D01*
X107703710Y-146158727D01*
X107602140Y-146063346D01*
X107573436Y-146042491D01*
X107491554Y-145983001D01*
X107346779Y-145877816D01*
X107265755Y-145833272D01*
X107073648Y-145727660D01*
X107073647Y-145727659D01*
X107070179Y-145725753D01*
X107066510Y-145724300D01*
X107066505Y-145724298D01*
X106780372Y-145611010D01*
X106780371Y-145611010D01*
X106776702Y-145609557D01*
X106470975Y-145531060D01*
X106157821Y-145491500D01*
X105842179Y-145491500D01*
X105529025Y-145531060D01*
X105223298Y-145609557D01*
X105219629Y-145611010D01*
X105219628Y-145611010D01*
X104933495Y-145724298D01*
X104933490Y-145724300D01*
X104929821Y-145725753D01*
X104926353Y-145727659D01*
X104926352Y-145727660D01*
X104734246Y-145833272D01*
X104653221Y-145877816D01*
X104508446Y-145983001D01*
X104426565Y-146042491D01*
X104397860Y-146063346D01*
X104296290Y-146158727D01*
X104183973Y-146264200D01*
X104167767Y-146279418D01*
X104165243Y-146282469D01*
X104165242Y-146282470D01*
X104153553Y-146296600D01*
X103966568Y-146522625D01*
X103797438Y-146789131D01*
X103795754Y-146792710D01*
X103795750Y-146792717D01*
X103664733Y-147071144D01*
X103663044Y-147074734D01*
X103565505Y-147374928D01*
X103506359Y-147684980D01*
X103506110Y-147688942D01*
X103488986Y-147961134D01*
X103488833Y-147963559D01*
X103486540Y-148000000D01*
X100508500Y-148000000D01*
X100508500Y-126475000D01*
X114047486Y-126475000D01*
X114066313Y-126714222D01*
X114067467Y-126719029D01*
X114067468Y-126719035D01*
X114102743Y-126865963D01*
X114122331Y-126947553D01*
X114214160Y-127169249D01*
X114339540Y-127373849D01*
X114342757Y-127377616D01*
X114342758Y-127377617D01*
X114359411Y-127397115D01*
X114495382Y-127556318D01*
X114677851Y-127712160D01*
X114791815Y-127781998D01*
X114882451Y-127837540D01*
X114881270Y-127839468D01*
X114926056Y-127881816D01*
X114943200Y-127945270D01*
X114943200Y-133534233D01*
X114942673Y-133545416D01*
X114940998Y-133552909D01*
X114941247Y-133560835D01*
X114941247Y-133560836D01*
X114943138Y-133620986D01*
X114943200Y-133624945D01*
X114943200Y-133652856D01*
X114943697Y-133656790D01*
X114943697Y-133656791D01*
X114943705Y-133656856D01*
X114944638Y-133668693D01*
X114946027Y-133712889D01*
X114951678Y-133732339D01*
X114955687Y-133751700D01*
X114958226Y-133771797D01*
X114961145Y-133779168D01*
X114961145Y-133779170D01*
X114974504Y-133812912D01*
X114978349Y-133824142D01*
X114990682Y-133866593D01*
X114994715Y-133873412D01*
X114994717Y-133873417D01*
X115000993Y-133884028D01*
X115009688Y-133901776D01*
X115017148Y-133920617D01*
X115021810Y-133927033D01*
X115021810Y-133927034D01*
X115043136Y-133956387D01*
X115049652Y-133966307D01*
X115072158Y-134004362D01*
X115086479Y-134018683D01*
X115099319Y-134033716D01*
X115111228Y-134050107D01*
X115117334Y-134055158D01*
X115145305Y-134078298D01*
X115154084Y-134086288D01*
X117769048Y-136701253D01*
X117776588Y-136709539D01*
X117780700Y-136716018D01*
X117786477Y-136721443D01*
X117830351Y-136762643D01*
X117833193Y-136765398D01*
X117852930Y-136785135D01*
X117856127Y-136787615D01*
X117865147Y-136795318D01*
X117897379Y-136825586D01*
X117904325Y-136829405D01*
X117904328Y-136829407D01*
X117915134Y-136835348D01*
X117931653Y-136846199D01*
X117947659Y-136858614D01*
X117954928Y-136861759D01*
X117954932Y-136861762D01*
X117988237Y-136876174D01*
X117998887Y-136881391D01*
X118037640Y-136902695D01*
X118045315Y-136904666D01*
X118045316Y-136904666D01*
X118057262Y-136907733D01*
X118075967Y-136914137D01*
X118094555Y-136922181D01*
X118102378Y-136923420D01*
X118102388Y-136923423D01*
X118138224Y-136929099D01*
X118149844Y-136931505D01*
X118184989Y-136940528D01*
X118192670Y-136942500D01*
X118212924Y-136942500D01*
X118232634Y-136944051D01*
X118252643Y-136947220D01*
X118260535Y-136946474D01*
X118296661Y-136943059D01*
X118308519Y-136942500D01*
X120569215Y-136942500D01*
X120602260Y-136949070D01*
X120602766Y-136947183D01*
X120610751Y-136949322D01*
X120618376Y-136952481D01*
X120626560Y-136953558D01*
X120626562Y-136953559D01*
X120728369Y-136966962D01*
X120728370Y-136966962D01*
X120732456Y-136967500D01*
X121233944Y-136967500D01*
X121304256Y-136958243D01*
X121337144Y-136958243D01*
X121407456Y-136967500D01*
X121908944Y-136967500D01*
X121913030Y-136966962D01*
X121913031Y-136966962D01*
X122014838Y-136953559D01*
X122014840Y-136953558D01*
X122023024Y-136952481D01*
X122030649Y-136949322D01*
X122038634Y-136947183D01*
X122039140Y-136949070D01*
X122072185Y-136942500D01*
X122276106Y-136942500D01*
X122344227Y-136962502D01*
X122365201Y-136979405D01*
X123572139Y-138186344D01*
X123606165Y-138248656D01*
X123599453Y-138323657D01*
X123581220Y-138367676D01*
X123566201Y-138481756D01*
X123566201Y-138708244D01*
X123581220Y-138822324D01*
X123640015Y-138964268D01*
X123693882Y-139034468D01*
X123702663Y-139045912D01*
X123728264Y-139112132D01*
X123728701Y-139122616D01*
X123728701Y-146129734D01*
X123728174Y-146140917D01*
X123726499Y-146148410D01*
X123726748Y-146156336D01*
X123726748Y-146156337D01*
X123728639Y-146216487D01*
X123728701Y-146220446D01*
X123728701Y-146248357D01*
X123729198Y-146252291D01*
X123729198Y-146252292D01*
X123729206Y-146252357D01*
X123730139Y-146264194D01*
X123731528Y-146308390D01*
X123737179Y-146327840D01*
X123741188Y-146347201D01*
X123743727Y-146367298D01*
X123746646Y-146374669D01*
X123746646Y-146374671D01*
X123760005Y-146408413D01*
X123763850Y-146419643D01*
X123776183Y-146462094D01*
X123780216Y-146468913D01*
X123780218Y-146468918D01*
X123786494Y-146479529D01*
X123795189Y-146497277D01*
X123802649Y-146516118D01*
X123807311Y-146522534D01*
X123807311Y-146522535D01*
X123828637Y-146551888D01*
X123835153Y-146561808D01*
X123857659Y-146599863D01*
X123871980Y-146614184D01*
X123884820Y-146629217D01*
X123896729Y-146645608D01*
X123902835Y-146650659D01*
X123930806Y-146673799D01*
X123939585Y-146681789D01*
X125135043Y-147877247D01*
X125142587Y-147885537D01*
X125146700Y-147892018D01*
X125152477Y-147897443D01*
X125196367Y-147938658D01*
X125199209Y-147941413D01*
X125218930Y-147961134D01*
X125222125Y-147963612D01*
X125231147Y-147971318D01*
X125263379Y-148001586D01*
X125270328Y-148005406D01*
X125281132Y-148011346D01*
X125297656Y-148022199D01*
X125313659Y-148034613D01*
X125354243Y-148052176D01*
X125364873Y-148057383D01*
X125403640Y-148078695D01*
X125411317Y-148080666D01*
X125411322Y-148080668D01*
X125423258Y-148083732D01*
X125441966Y-148090137D01*
X125460555Y-148098181D01*
X125468383Y-148099421D01*
X125468390Y-148099423D01*
X125504224Y-148105099D01*
X125515844Y-148107505D01*
X125547659Y-148115673D01*
X125558670Y-148118500D01*
X125578924Y-148118500D01*
X125598634Y-148120051D01*
X125618643Y-148123220D01*
X125626535Y-148122474D01*
X125645280Y-148120702D01*
X125662662Y-148119059D01*
X125674519Y-148118500D01*
X134576933Y-148118500D01*
X134588116Y-148119027D01*
X134595609Y-148120702D01*
X134603535Y-148120453D01*
X134603536Y-148120453D01*
X134663686Y-148118562D01*
X134667645Y-148118500D01*
X134695556Y-148118500D01*
X134699491Y-148118003D01*
X134699556Y-148117995D01*
X134711393Y-148117062D01*
X134743651Y-148116048D01*
X134747670Y-148115922D01*
X134755589Y-148115673D01*
X134775043Y-148110021D01*
X134794400Y-148106013D01*
X134806630Y-148104468D01*
X134806631Y-148104468D01*
X134814497Y-148103474D01*
X134821868Y-148100555D01*
X134821870Y-148100555D01*
X134855612Y-148087196D01*
X134866842Y-148083351D01*
X134901683Y-148073229D01*
X134901684Y-148073229D01*
X134909293Y-148071018D01*
X134916112Y-148066985D01*
X134916117Y-148066983D01*
X134926728Y-148060707D01*
X134944476Y-148052012D01*
X134963317Y-148044552D01*
X134983687Y-148029753D01*
X134999087Y-148018564D01*
X135009007Y-148012048D01*
X135029379Y-148000000D01*
X185486540Y-148000000D01*
X185506359Y-148315020D01*
X185565505Y-148625072D01*
X185663044Y-148925266D01*
X185664731Y-148928852D01*
X185664733Y-148928856D01*
X185795750Y-149207283D01*
X185795754Y-149207290D01*
X185797438Y-149210869D01*
X185966568Y-149477375D01*
X186167767Y-149720582D01*
X186397860Y-149936654D01*
X186653221Y-150122184D01*
X186929821Y-150274247D01*
X186933490Y-150275700D01*
X186933495Y-150275702D01*
X187219628Y-150388990D01*
X187223298Y-150390443D01*
X187529025Y-150468940D01*
X187842179Y-150508500D01*
X188157821Y-150508500D01*
X188470975Y-150468940D01*
X188776702Y-150390443D01*
X188780372Y-150388990D01*
X189066505Y-150275702D01*
X189066510Y-150275700D01*
X189070179Y-150274247D01*
X189346779Y-150122184D01*
X189602140Y-149936654D01*
X189832233Y-149720582D01*
X190033432Y-149477375D01*
X190202562Y-149210869D01*
X190204246Y-149207290D01*
X190204250Y-149207283D01*
X190335267Y-148928856D01*
X190335269Y-148928852D01*
X190336956Y-148925266D01*
X190434495Y-148625072D01*
X190493641Y-148315020D01*
X190513460Y-148000000D01*
X190493641Y-147684980D01*
X190434495Y-147374928D01*
X190336956Y-147074734D01*
X190335267Y-147071144D01*
X190204250Y-146792717D01*
X190204246Y-146792710D01*
X190202562Y-146789131D01*
X190033432Y-146522625D01*
X189846447Y-146296600D01*
X189834758Y-146282470D01*
X189834757Y-146282469D01*
X189832233Y-146279418D01*
X189816028Y-146264200D01*
X189703710Y-146158727D01*
X189602140Y-146063346D01*
X189573436Y-146042491D01*
X189491554Y-145983001D01*
X189346779Y-145877816D01*
X189265755Y-145833272D01*
X189073648Y-145727660D01*
X189073647Y-145727659D01*
X189070179Y-145725753D01*
X189066510Y-145724300D01*
X189066505Y-145724298D01*
X188780372Y-145611010D01*
X188780371Y-145611010D01*
X188776702Y-145609557D01*
X188470975Y-145531060D01*
X188157821Y-145491500D01*
X187842179Y-145491500D01*
X187529025Y-145531060D01*
X187223298Y-145609557D01*
X187219629Y-145611010D01*
X187219628Y-145611010D01*
X186933495Y-145724298D01*
X186933490Y-145724300D01*
X186929821Y-145725753D01*
X186926353Y-145727659D01*
X186926352Y-145727660D01*
X186734246Y-145833272D01*
X186653221Y-145877816D01*
X186508446Y-145983001D01*
X186426565Y-146042491D01*
X186397860Y-146063346D01*
X186296290Y-146158727D01*
X186183973Y-146264200D01*
X186167767Y-146279418D01*
X186165243Y-146282469D01*
X186165242Y-146282470D01*
X186153553Y-146296600D01*
X185966568Y-146522625D01*
X185797438Y-146789131D01*
X185795754Y-146792710D01*
X185795750Y-146792717D01*
X185664733Y-147071144D01*
X185663044Y-147074734D01*
X185565505Y-147374928D01*
X185506359Y-147684980D01*
X185506110Y-147688942D01*
X185488986Y-147961134D01*
X185488833Y-147963559D01*
X185486540Y-148000000D01*
X135029379Y-148000000D01*
X135040235Y-147993580D01*
X135040238Y-147993578D01*
X135047062Y-147989542D01*
X135061383Y-147975221D01*
X135076417Y-147962380D01*
X135078132Y-147961134D01*
X135092807Y-147950472D01*
X135120998Y-147916395D01*
X135128988Y-147907616D01*
X135586282Y-147450322D01*
X135604553Y-147435206D01*
X135604810Y-147435031D01*
X135611371Y-147430572D01*
X135648518Y-147388437D01*
X135653937Y-147382667D01*
X135665235Y-147371369D01*
X135675036Y-147358734D01*
X135680081Y-147352636D01*
X135711977Y-147316457D01*
X135717220Y-147310510D01*
X135720961Y-147303168D01*
X135733667Y-147283146D01*
X135733857Y-147282901D01*
X135738714Y-147276640D01*
X135741860Y-147269370D01*
X135741863Y-147269365D01*
X135761019Y-147225097D01*
X135764381Y-147217950D01*
X135789885Y-147167896D01*
X135791683Y-147159851D01*
X135799009Y-147137306D01*
X135799132Y-147137021D01*
X135802281Y-147129745D01*
X135811067Y-147074274D01*
X135812551Y-147066499D01*
X135823071Y-147019434D01*
X135824802Y-147011691D01*
X135824543Y-147003456D01*
X135826033Y-146979785D01*
X135826080Y-146979489D01*
X135826080Y-146979486D01*
X135827320Y-146971657D01*
X135822035Y-146915742D01*
X135821538Y-146907845D01*
X135820022Y-146859635D01*
X135819773Y-146851710D01*
X135817561Y-146844096D01*
X135816321Y-146836268D01*
X135817512Y-146836079D01*
X135814700Y-146816315D01*
X135814700Y-146206060D01*
X135834702Y-146137939D01*
X135839874Y-146130495D01*
X135847281Y-146120612D01*
X135911215Y-146035305D01*
X135962345Y-145898916D01*
X135969100Y-145836734D01*
X135969100Y-145833269D01*
X136298801Y-145833269D01*
X136299171Y-145840090D01*
X136304695Y-145890952D01*
X136308321Y-145906204D01*
X136353476Y-146026654D01*
X136362014Y-146042249D01*
X136438515Y-146144324D01*
X136451076Y-146156885D01*
X136553151Y-146233386D01*
X136568746Y-146241924D01*
X136689194Y-146287078D01*
X136704449Y-146290705D01*
X136755314Y-146296231D01*
X136762128Y-146296600D01*
X136814085Y-146296600D01*
X136829324Y-146292125D01*
X136830529Y-146290735D01*
X136832200Y-146283052D01*
X136832200Y-146278484D01*
X137340200Y-146278484D01*
X137344675Y-146293723D01*
X137346065Y-146294928D01*
X137353748Y-146296599D01*
X137410269Y-146296599D01*
X137417090Y-146296229D01*
X137467952Y-146290705D01*
X137483204Y-146287079D01*
X137603654Y-146241924D01*
X137619249Y-146233386D01*
X137721324Y-146156885D01*
X137733885Y-146144324D01*
X137810386Y-146042249D01*
X137818924Y-146026654D01*
X137864078Y-145906206D01*
X137867705Y-145890951D01*
X137873231Y-145840086D01*
X137873600Y-145833272D01*
X137873600Y-145400315D01*
X137869125Y-145385076D01*
X137867735Y-145383871D01*
X137860052Y-145382200D01*
X137358315Y-145382200D01*
X137343076Y-145386675D01*
X137341871Y-145388065D01*
X137340200Y-145395748D01*
X137340200Y-146278484D01*
X136832200Y-146278484D01*
X136832200Y-145400315D01*
X136827725Y-145385076D01*
X136826335Y-145383871D01*
X136818652Y-145382200D01*
X136316916Y-145382200D01*
X136301677Y-145386675D01*
X136300472Y-145388065D01*
X136298801Y-145395748D01*
X136298801Y-145833269D01*
X135969100Y-145833269D01*
X135969100Y-144630650D01*
X135989102Y-144562529D01*
X136042758Y-144516036D01*
X136095100Y-144504650D01*
X136172800Y-144504650D01*
X136240921Y-144524652D01*
X136287414Y-144578308D01*
X136298800Y-144630650D01*
X136298800Y-144856085D01*
X136303275Y-144871324D01*
X136304665Y-144872529D01*
X136312348Y-144874200D01*
X136814085Y-144874200D01*
X136829324Y-144869725D01*
X136830529Y-144868335D01*
X136832200Y-144860652D01*
X136832200Y-144856085D01*
X137340200Y-144856085D01*
X137344675Y-144871324D01*
X137346065Y-144872529D01*
X137353748Y-144874200D01*
X137855484Y-144874200D01*
X137870723Y-144869725D01*
X137871928Y-144868335D01*
X137873599Y-144860652D01*
X137873599Y-144423131D01*
X137873229Y-144416310D01*
X137867705Y-144365448D01*
X137864079Y-144350196D01*
X137818924Y-144229746D01*
X137810386Y-144214151D01*
X137733885Y-144112076D01*
X137721324Y-144099515D01*
X137619249Y-144023014D01*
X137603654Y-144014476D01*
X137483206Y-143969322D01*
X137467951Y-143965695D01*
X137417086Y-143960169D01*
X137410272Y-143959800D01*
X137358315Y-143959800D01*
X137343076Y-143964275D01*
X137341871Y-143965665D01*
X137340200Y-143973348D01*
X137340200Y-144856085D01*
X136832200Y-144856085D01*
X136832200Y-144326881D01*
X136852202Y-144258760D01*
X136857373Y-144251317D01*
X136858329Y-144250041D01*
X136863715Y-144242855D01*
X136914845Y-144106466D01*
X136921600Y-144044284D01*
X136921600Y-142627216D01*
X136914845Y-142565034D01*
X136912895Y-142559833D01*
X136916544Y-142489970D01*
X136946329Y-142442630D01*
X140098554Y-139290405D01*
X140160866Y-139256379D01*
X140187649Y-139253500D01*
X145622644Y-139253500D01*
X145634500Y-139254059D01*
X145634503Y-139254059D01*
X145642237Y-139255788D01*
X145713069Y-139253562D01*
X145717027Y-139253500D01*
X145746132Y-139253500D01*
X145750532Y-139252944D01*
X145762364Y-139252012D01*
X145808531Y-139250562D01*
X145829121Y-139244580D01*
X145848482Y-139240570D01*
X145860344Y-139239072D01*
X145861904Y-139238875D01*
X145861905Y-139238875D01*
X145869764Y-139237882D01*
X145877129Y-139234966D01*
X145877133Y-139234965D01*
X145912721Y-139220874D01*
X145923931Y-139217035D01*
X145968300Y-139204145D01*
X145986765Y-139193225D01*
X146004505Y-139184534D01*
X146024456Y-139176635D01*
X146061829Y-139149482D01*
X146071748Y-139142967D01*
X146104677Y-139123493D01*
X146104681Y-139123490D01*
X146111507Y-139119453D01*
X146126671Y-139104289D01*
X146141705Y-139091448D01*
X146152643Y-139083501D01*
X146159057Y-139078841D01*
X146188503Y-139043247D01*
X146196492Y-139034468D01*
X148481805Y-136749155D01*
X148490585Y-136741165D01*
X148490587Y-136741163D01*
X148497280Y-136736916D01*
X148516905Y-136716018D01*
X148545804Y-136685243D01*
X148548559Y-136682401D01*
X148569127Y-136661833D01*
X148571847Y-136658326D01*
X148579553Y-136649304D01*
X148605744Y-136621413D01*
X148611172Y-136615633D01*
X148614994Y-136608681D01*
X148621503Y-136596842D01*
X148632357Y-136580318D01*
X148640645Y-136569632D01*
X148645504Y-136563368D01*
X148648652Y-136556094D01*
X148663854Y-136520965D01*
X148669076Y-136510305D01*
X148687505Y-136476784D01*
X148687506Y-136476782D01*
X148691324Y-136469837D01*
X148696659Y-136449059D01*
X148703058Y-136430369D01*
X148711580Y-136410676D01*
X148718806Y-136365052D01*
X148721213Y-136353429D01*
X148730728Y-136316368D01*
X148732700Y-136308688D01*
X148732700Y-136287241D01*
X148734251Y-136267531D01*
X148736366Y-136254177D01*
X148737606Y-136246348D01*
X148733259Y-136200359D01*
X148732700Y-136188504D01*
X148732700Y-132486036D01*
X148752702Y-132417915D01*
X148758737Y-132409333D01*
X148791357Y-132366821D01*
X148796386Y-132360267D01*
X148855181Y-132218324D01*
X148870200Y-132104244D01*
X148870200Y-131877756D01*
X148855181Y-131763676D01*
X148831559Y-131706646D01*
X148799546Y-131629362D01*
X148796386Y-131621732D01*
X148702857Y-131499843D01*
X148683502Y-131484991D01*
X148620158Y-131436386D01*
X148580967Y-131406314D01*
X148439024Y-131347519D01*
X148345870Y-131335255D01*
X148329031Y-131333038D01*
X148329030Y-131333038D01*
X148324944Y-131332500D01*
X148148355Y-131332500D01*
X148124746Y-131330268D01*
X148123662Y-131330061D01*
X148123660Y-131330061D01*
X148115876Y-131328576D01*
X148057465Y-131332251D01*
X148049553Y-131332500D01*
X147823456Y-131332500D01*
X147802529Y-131335255D01*
X147732380Y-131324315D01*
X147696988Y-131299428D01*
X147400505Y-131002945D01*
X147366479Y-130940633D01*
X147363600Y-130913850D01*
X147363600Y-127881975D01*
X147383602Y-127813854D01*
X147437258Y-127767361D01*
X147445370Y-127763993D01*
X147527597Y-127733167D01*
X147536005Y-127730015D01*
X147652561Y-127642661D01*
X147739915Y-127526105D01*
X147791045Y-127389716D01*
X147797800Y-127327534D01*
X148355600Y-127327534D01*
X148362355Y-127389716D01*
X148413485Y-127526105D01*
X148500839Y-127642661D01*
X148617395Y-127730015D01*
X148753784Y-127781145D01*
X148815966Y-127787900D01*
X150080634Y-127787900D01*
X150142816Y-127781145D01*
X150279205Y-127730015D01*
X150341039Y-127683673D01*
X150407543Y-127658826D01*
X150416602Y-127658500D01*
X174068540Y-127658500D01*
X174136661Y-127678502D01*
X174150369Y-127688688D01*
X174177851Y-127712160D01*
X174382451Y-127837540D01*
X174387021Y-127839433D01*
X174387023Y-127839434D01*
X174599574Y-127927475D01*
X174604147Y-127929369D01*
X174670379Y-127945270D01*
X174832665Y-127984232D01*
X174832671Y-127984233D01*
X174837478Y-127985387D01*
X175076700Y-128004214D01*
X175315922Y-127985387D01*
X175320729Y-127984233D01*
X175320735Y-127984232D01*
X175483021Y-127945270D01*
X175549253Y-127929369D01*
X175553826Y-127927475D01*
X175766377Y-127839434D01*
X175766379Y-127839433D01*
X175770949Y-127837540D01*
X175963888Y-127719306D01*
X179197224Y-127719306D01*
X179202951Y-127726956D01*
X179378459Y-127834507D01*
X179387253Y-127838988D01*
X179599729Y-127926998D01*
X179609114Y-127930047D01*
X179832744Y-127983737D01*
X179842491Y-127985280D01*
X180071770Y-128003325D01*
X180081630Y-128003325D01*
X180310909Y-127985280D01*
X180320656Y-127983737D01*
X180544286Y-127930047D01*
X180553671Y-127926998D01*
X180766147Y-127838988D01*
X180774941Y-127834507D01*
X180946783Y-127729203D01*
X180956243Y-127718747D01*
X180952459Y-127709969D01*
X180089512Y-126847022D01*
X180075568Y-126839408D01*
X180073735Y-126839539D01*
X180067120Y-126843790D01*
X179203984Y-127706926D01*
X179197224Y-127719306D01*
X175963888Y-127719306D01*
X175975549Y-127712160D01*
X176158018Y-127556318D01*
X176293989Y-127397115D01*
X176310642Y-127377617D01*
X176310643Y-127377616D01*
X176313860Y-127373849D01*
X176439240Y-127169249D01*
X176531069Y-126947553D01*
X176550657Y-126865963D01*
X176585932Y-126719035D01*
X176585933Y-126719029D01*
X176587087Y-126714222D01*
X176605526Y-126479930D01*
X178548375Y-126479930D01*
X178566420Y-126709209D01*
X178567963Y-126718956D01*
X178621653Y-126942586D01*
X178624702Y-126951971D01*
X178712712Y-127164447D01*
X178717193Y-127173241D01*
X178822497Y-127345083D01*
X178832953Y-127354543D01*
X178841731Y-127350759D01*
X179704678Y-126487812D01*
X179711056Y-126476132D01*
X180441108Y-126476132D01*
X180441239Y-126477965D01*
X180445490Y-126484580D01*
X181308626Y-127347716D01*
X181321006Y-127354476D01*
X181328656Y-127348749D01*
X181436207Y-127173241D01*
X181440688Y-127164447D01*
X181528698Y-126951971D01*
X181531747Y-126942586D01*
X181585437Y-126718956D01*
X181586980Y-126709209D01*
X181605025Y-126479930D01*
X181605025Y-126470070D01*
X181586980Y-126240791D01*
X181585437Y-126231044D01*
X181531747Y-126007414D01*
X181528698Y-125998029D01*
X181440688Y-125785553D01*
X181436207Y-125776759D01*
X181330903Y-125604917D01*
X181320447Y-125595457D01*
X181311669Y-125599241D01*
X180448722Y-126462188D01*
X180441108Y-126476132D01*
X179711056Y-126476132D01*
X179712292Y-126473868D01*
X179712161Y-126472035D01*
X179707910Y-126465420D01*
X178844774Y-125602284D01*
X178832394Y-125595524D01*
X178824744Y-125601251D01*
X178717193Y-125776759D01*
X178712712Y-125785553D01*
X178624702Y-125998029D01*
X178621653Y-126007414D01*
X178567963Y-126231044D01*
X178566420Y-126240791D01*
X178548375Y-126470070D01*
X178548375Y-126479930D01*
X176605526Y-126479930D01*
X176605914Y-126475000D01*
X176587087Y-126235778D01*
X176585933Y-126230971D01*
X176585932Y-126230965D01*
X176532224Y-126007259D01*
X176531069Y-126002447D01*
X176439240Y-125780751D01*
X176313860Y-125576151D01*
X176300309Y-125560284D01*
X176161231Y-125397444D01*
X176158018Y-125393682D01*
X175975549Y-125237840D01*
X175964800Y-125231253D01*
X179197157Y-125231253D01*
X179200941Y-125240031D01*
X180063888Y-126102978D01*
X180077832Y-126110592D01*
X180079665Y-126110461D01*
X180086280Y-126106210D01*
X180949416Y-125243074D01*
X180956176Y-125230694D01*
X180950449Y-125223044D01*
X180774941Y-125115493D01*
X180766147Y-125111012D01*
X180553671Y-125023002D01*
X180544286Y-125019953D01*
X180320656Y-124966263D01*
X180310909Y-124964720D01*
X180081630Y-124946675D01*
X180071770Y-124946675D01*
X179842491Y-124964720D01*
X179832744Y-124966263D01*
X179609114Y-125019953D01*
X179599729Y-125023002D01*
X179387253Y-125111012D01*
X179378459Y-125115493D01*
X179206617Y-125220797D01*
X179197157Y-125231253D01*
X175964800Y-125231253D01*
X175770949Y-125112460D01*
X175766379Y-125110567D01*
X175766377Y-125110566D01*
X175553826Y-125022525D01*
X175553824Y-125022524D01*
X175549253Y-125020631D01*
X175467663Y-125001043D01*
X175320735Y-124965768D01*
X175320729Y-124965767D01*
X175315922Y-124964613D01*
X175076700Y-124945786D01*
X174837478Y-124964613D01*
X174832671Y-124965767D01*
X174832665Y-124965768D01*
X174685737Y-125001043D01*
X174604147Y-125020631D01*
X174599576Y-125022524D01*
X174599574Y-125022525D01*
X174387023Y-125110566D01*
X174387021Y-125110567D01*
X174382451Y-125112460D01*
X174177851Y-125237840D01*
X173995382Y-125393682D01*
X173992169Y-125397444D01*
X173853092Y-125560284D01*
X173839540Y-125576151D01*
X173714160Y-125780751D01*
X173622331Y-126002447D01*
X173621176Y-126007259D01*
X173567468Y-126230965D01*
X173567467Y-126230971D01*
X173566313Y-126235778D01*
X173566270Y-126236320D01*
X173536384Y-126299364D01*
X173476115Y-126336891D01*
X173442347Y-126341500D01*
X150667000Y-126341500D01*
X150598879Y-126321498D01*
X150552386Y-126267842D01*
X150541000Y-126215500D01*
X150541000Y-125622466D01*
X150534245Y-125560284D01*
X150483115Y-125423895D01*
X150395761Y-125307339D01*
X150279205Y-125219985D01*
X150142816Y-125168855D01*
X150080634Y-125162100D01*
X148815966Y-125162100D01*
X148753784Y-125168855D01*
X148617395Y-125219985D01*
X148500839Y-125307339D01*
X148413485Y-125423895D01*
X148362355Y-125560284D01*
X148355600Y-125622466D01*
X148355600Y-126277534D01*
X148362355Y-126339716D01*
X148365129Y-126347115D01*
X148396490Y-126430770D01*
X148401673Y-126501577D01*
X148396491Y-126519228D01*
X148362355Y-126610284D01*
X148355600Y-126672466D01*
X148355600Y-127327534D01*
X147797800Y-127327534D01*
X147797800Y-126672466D01*
X147791045Y-126610284D01*
X147756910Y-126519229D01*
X147751727Y-126448423D01*
X147756910Y-126430770D01*
X147788271Y-126347115D01*
X147791045Y-126339716D01*
X147797800Y-126277534D01*
X147797800Y-125622466D01*
X147791045Y-125560284D01*
X147739915Y-125423895D01*
X147652561Y-125307339D01*
X147536005Y-125219985D01*
X147399616Y-125168855D01*
X147337434Y-125162100D01*
X146072766Y-125162100D01*
X146010584Y-125168855D01*
X145874195Y-125219985D01*
X145757639Y-125307339D01*
X145670285Y-125423895D01*
X145619155Y-125560284D01*
X145612400Y-125622466D01*
X145612400Y-126277534D01*
X145619155Y-126339716D01*
X145621929Y-126347115D01*
X145653290Y-126430770D01*
X145658473Y-126501577D01*
X145653291Y-126519228D01*
X145619155Y-126610284D01*
X145612400Y-126672466D01*
X145612400Y-127327534D01*
X145619155Y-127389716D01*
X145670285Y-127526105D01*
X145757639Y-127642661D01*
X145874195Y-127730015D01*
X145882603Y-127733167D01*
X145964830Y-127763993D01*
X146021594Y-127806635D01*
X146046294Y-127873197D01*
X146046600Y-127881975D01*
X146046600Y-131098551D01*
X146043565Y-131126035D01*
X146034512Y-131166537D01*
X146034761Y-131174460D01*
X146034761Y-131174461D01*
X146034796Y-131175558D01*
X146033306Y-131199237D01*
X146031894Y-131208152D01*
X146032640Y-131216044D01*
X146037402Y-131266426D01*
X146037899Y-131274324D01*
X146039738Y-131332831D01*
X146041951Y-131340447D01*
X146042255Y-131341494D01*
X146046701Y-131364799D01*
X146047551Y-131373789D01*
X146061070Y-131411341D01*
X146067377Y-131428859D01*
X146069823Y-131436386D01*
X146086155Y-131492600D01*
X146090755Y-131500378D01*
X146100846Y-131521823D01*
X146103908Y-131530329D01*
X146108363Y-131536884D01*
X146136813Y-131578746D01*
X146141050Y-131585422D01*
X146170847Y-131635807D01*
X146177231Y-131642191D01*
X146192348Y-131660463D01*
X146197426Y-131667935D01*
X146203374Y-131673179D01*
X146203375Y-131673180D01*
X146241335Y-131706646D01*
X146247105Y-131712065D01*
X146567485Y-132032445D01*
X146601511Y-132094757D01*
X146603312Y-132105092D01*
X146618219Y-132218324D01*
X146677014Y-132360268D01*
X146770543Y-132482157D01*
X146892433Y-132575686D01*
X147034376Y-132634481D01*
X147105547Y-132643851D01*
X147144369Y-132648962D01*
X147144370Y-132648962D01*
X147148456Y-132649500D01*
X147289700Y-132649500D01*
X147357821Y-132669502D01*
X147404314Y-132723158D01*
X147415700Y-132775500D01*
X147415700Y-135900550D01*
X147395698Y-135968671D01*
X147378795Y-135989645D01*
X145468845Y-137899595D01*
X145406533Y-137933621D01*
X145379750Y-137936500D01*
X139944756Y-137936500D01*
X139932900Y-137935941D01*
X139932897Y-137935941D01*
X139925163Y-137934212D01*
X139870146Y-137935941D01*
X139854331Y-137936438D01*
X139850373Y-137936500D01*
X139821268Y-137936500D01*
X139816868Y-137937056D01*
X139805036Y-137937988D01*
X139758869Y-137939438D01*
X139738279Y-137945420D01*
X139718918Y-137949430D01*
X139711930Y-137950312D01*
X139705496Y-137951125D01*
X139705495Y-137951125D01*
X139697636Y-137952118D01*
X139690271Y-137955034D01*
X139690267Y-137955035D01*
X139654679Y-137969126D01*
X139643469Y-137972965D01*
X139599100Y-137985855D01*
X139580643Y-137996771D01*
X139562893Y-138005466D01*
X139542944Y-138013365D01*
X139536533Y-138018023D01*
X139536531Y-138018024D01*
X139505564Y-138040523D01*
X139495646Y-138047038D01*
X139455893Y-138070548D01*
X139440732Y-138085709D01*
X139425700Y-138098548D01*
X139408343Y-138111159D01*
X139378893Y-138146758D01*
X139370903Y-138155538D01*
X135726095Y-141800345D01*
X135717315Y-141808335D01*
X135717313Y-141808337D01*
X135710620Y-141812584D01*
X135705194Y-141818362D01*
X135705193Y-141818363D01*
X135662096Y-141864257D01*
X135659341Y-141867099D01*
X135638773Y-141887667D01*
X135636056Y-141891170D01*
X135628348Y-141900195D01*
X135596728Y-141933867D01*
X135592907Y-141940818D01*
X135592906Y-141940819D01*
X135586397Y-141952658D01*
X135575543Y-141969182D01*
X135567718Y-141979271D01*
X135562396Y-141986132D01*
X135559249Y-141993404D01*
X135559248Y-141993406D01*
X135544046Y-142028535D01*
X135538824Y-142039195D01*
X135516576Y-142079663D01*
X135511241Y-142100441D01*
X135504842Y-142119131D01*
X135496320Y-142138824D01*
X135495080Y-142146655D01*
X135489094Y-142184448D01*
X135486687Y-142196071D01*
X135475200Y-142240812D01*
X135475200Y-142262259D01*
X135473649Y-142281969D01*
X135470294Y-142303152D01*
X135470306Y-142303283D01*
X135446268Y-142371827D01*
X135403685Y-142428645D01*
X135352555Y-142565034D01*
X135345800Y-142627216D01*
X135345800Y-143833300D01*
X135325798Y-143901421D01*
X135272142Y-143947914D01*
X135219800Y-143959300D01*
X134853666Y-143959300D01*
X134791484Y-143966055D01*
X134655095Y-144017185D01*
X134538539Y-144104539D01*
X134451185Y-144221095D01*
X134400055Y-144357484D01*
X134393300Y-144419666D01*
X134393300Y-145836734D01*
X134400055Y-145898916D01*
X134451185Y-146035305D01*
X134515119Y-146120612D01*
X134522526Y-146130495D01*
X134547374Y-146197001D01*
X134547700Y-146206060D01*
X134547700Y-146644905D01*
X134527698Y-146713026D01*
X134510795Y-146734001D01*
X134430199Y-146814596D01*
X134367886Y-146848621D01*
X134341104Y-146851500D01*
X125953295Y-146851500D01*
X125885174Y-146831498D01*
X125864200Y-146814595D01*
X125032606Y-145983001D01*
X124998580Y-145920689D01*
X124995701Y-145893906D01*
X124995701Y-139356213D01*
X125015703Y-139288092D01*
X125069359Y-139241599D01*
X125139633Y-139231495D01*
X125173964Y-139247174D01*
X125200749Y-139253000D01*
X125283793Y-139253000D01*
X125292001Y-139252462D01*
X125393706Y-139239072D01*
X125409526Y-139234833D01*
X125536087Y-139182410D01*
X125550270Y-139174221D01*
X125658949Y-139090829D01*
X125670529Y-139079250D01*
X125753924Y-138970566D01*
X125762111Y-138956385D01*
X125814534Y-138829825D01*
X125818773Y-138814005D01*
X125825493Y-138762960D01*
X125823282Y-138748778D01*
X125810125Y-138745000D01*
X125284201Y-138745000D01*
X125216080Y-138724998D01*
X125169587Y-138671342D01*
X125158201Y-138619000D01*
X125158201Y-138571000D01*
X125178203Y-138502879D01*
X125231859Y-138456386D01*
X125284201Y-138445000D01*
X125809743Y-138445000D01*
X125823514Y-138440956D01*
X125825543Y-138427417D01*
X125818773Y-138375995D01*
X125814534Y-138360175D01*
X125762111Y-138233614D01*
X125753922Y-138219431D01*
X125670530Y-138110752D01*
X125658951Y-138099172D01*
X125550267Y-138015777D01*
X125536086Y-138007590D01*
X125409526Y-137955167D01*
X125393706Y-137950928D01*
X125292001Y-137937538D01*
X125283793Y-137937000D01*
X125205316Y-137937000D01*
X125190077Y-137941475D01*
X125187674Y-137944248D01*
X125127948Y-137982632D01*
X125056951Y-137982632D01*
X124997225Y-137944249D01*
X124975297Y-137908120D01*
X124964399Y-137880595D01*
X124960555Y-137869366D01*
X124950431Y-137834523D01*
X124948219Y-137826908D01*
X124937908Y-137809473D01*
X124929213Y-137791725D01*
X124921753Y-137772884D01*
X124895765Y-137737114D01*
X124889249Y-137727194D01*
X124870781Y-137695966D01*
X124870779Y-137695963D01*
X124866743Y-137689139D01*
X124852422Y-137674818D01*
X124839581Y-137659784D01*
X124832332Y-137649807D01*
X124827673Y-137643394D01*
X124793596Y-137615203D01*
X124784817Y-137607213D01*
X123094352Y-135916747D01*
X123086812Y-135908461D01*
X123082700Y-135901982D01*
X123033048Y-135855356D01*
X123030207Y-135852602D01*
X123010470Y-135832865D01*
X123007273Y-135830385D01*
X122998251Y-135822680D01*
X122971800Y-135797841D01*
X122966021Y-135792414D01*
X122959075Y-135788595D01*
X122959072Y-135788593D01*
X122948266Y-135782652D01*
X122931747Y-135771801D01*
X122931283Y-135771441D01*
X122915741Y-135759386D01*
X122908472Y-135756241D01*
X122908468Y-135756238D01*
X122875163Y-135741826D01*
X122864513Y-135736609D01*
X122825760Y-135715305D01*
X122806137Y-135710267D01*
X122787434Y-135703863D01*
X122776120Y-135698967D01*
X122776119Y-135698967D01*
X122768845Y-135695819D01*
X122761022Y-135694580D01*
X122761012Y-135694577D01*
X122725176Y-135688901D01*
X122713556Y-135686495D01*
X122678411Y-135677472D01*
X122678410Y-135677472D01*
X122670730Y-135675500D01*
X122650476Y-135675500D01*
X122630765Y-135673949D01*
X122618586Y-135672020D01*
X122610757Y-135670780D01*
X122602865Y-135671526D01*
X122566739Y-135674941D01*
X122554881Y-135675500D01*
X122072185Y-135675500D01*
X122039140Y-135668930D01*
X122038634Y-135670817D01*
X122030649Y-135668678D01*
X122023024Y-135665519D01*
X122014840Y-135664442D01*
X122014838Y-135664441D01*
X121913031Y-135651038D01*
X121913030Y-135651038D01*
X121908944Y-135650500D01*
X121407456Y-135650500D01*
X121337144Y-135659757D01*
X121304256Y-135659757D01*
X121233944Y-135650500D01*
X120732456Y-135650500D01*
X120728370Y-135651038D01*
X120728369Y-135651038D01*
X120626562Y-135664441D01*
X120626560Y-135664442D01*
X120618376Y-135665519D01*
X120610751Y-135668678D01*
X120602766Y-135670817D01*
X120602260Y-135668930D01*
X120569215Y-135675500D01*
X118587294Y-135675500D01*
X118519173Y-135655498D01*
X118498199Y-135638595D01*
X116247105Y-133387500D01*
X116213079Y-133325188D01*
X116210200Y-133298405D01*
X116210200Y-127945270D01*
X116230202Y-127877149D01*
X116272022Y-127839291D01*
X116270949Y-127837540D01*
X116361585Y-127781998D01*
X116463888Y-127719306D01*
X119697224Y-127719306D01*
X119702951Y-127726956D01*
X119878459Y-127834507D01*
X119887253Y-127838988D01*
X120099729Y-127926998D01*
X120109114Y-127930047D01*
X120332744Y-127983737D01*
X120342491Y-127985280D01*
X120571770Y-128003325D01*
X120581630Y-128003325D01*
X120810909Y-127985280D01*
X120820656Y-127983737D01*
X121044286Y-127930047D01*
X121053671Y-127926998D01*
X121266147Y-127838988D01*
X121274941Y-127834507D01*
X121446783Y-127729203D01*
X121456243Y-127718747D01*
X121452459Y-127709969D01*
X120589512Y-126847022D01*
X120575568Y-126839408D01*
X120573735Y-126839539D01*
X120567120Y-126843790D01*
X119703984Y-127706926D01*
X119697224Y-127719306D01*
X116463888Y-127719306D01*
X116475549Y-127712160D01*
X116658018Y-127556318D01*
X116793989Y-127397115D01*
X116810642Y-127377617D01*
X116810643Y-127377616D01*
X116813860Y-127373849D01*
X116939240Y-127169249D01*
X117031069Y-126947553D01*
X117050657Y-126865963D01*
X117085932Y-126719035D01*
X117085933Y-126719029D01*
X117087087Y-126714222D01*
X117105526Y-126479930D01*
X119048375Y-126479930D01*
X119066420Y-126709209D01*
X119067963Y-126718956D01*
X119121653Y-126942586D01*
X119124702Y-126951971D01*
X119212712Y-127164447D01*
X119217193Y-127173241D01*
X119322497Y-127345083D01*
X119332953Y-127354543D01*
X119341731Y-127350759D01*
X120204678Y-126487812D01*
X120211056Y-126476132D01*
X120941108Y-126476132D01*
X120941239Y-126477965D01*
X120945490Y-126484580D01*
X121808626Y-127347716D01*
X121821006Y-127354476D01*
X121828656Y-127348749D01*
X121936207Y-127173241D01*
X121940688Y-127164447D01*
X122028698Y-126951971D01*
X122031747Y-126942586D01*
X122085437Y-126718956D01*
X122086980Y-126709209D01*
X122105025Y-126479930D01*
X122105025Y-126470070D01*
X122086980Y-126240791D01*
X122085437Y-126231044D01*
X122031747Y-126007414D01*
X122028698Y-125998029D01*
X121940688Y-125785553D01*
X121936207Y-125776759D01*
X121830903Y-125604917D01*
X121820447Y-125595457D01*
X121811669Y-125599241D01*
X120948722Y-126462188D01*
X120941108Y-126476132D01*
X120211056Y-126476132D01*
X120212292Y-126473868D01*
X120212161Y-126472035D01*
X120207910Y-126465420D01*
X119344774Y-125602284D01*
X119332394Y-125595524D01*
X119324744Y-125601251D01*
X119217193Y-125776759D01*
X119212712Y-125785553D01*
X119124702Y-125998029D01*
X119121653Y-126007414D01*
X119067963Y-126231044D01*
X119066420Y-126240791D01*
X119048375Y-126470070D01*
X119048375Y-126479930D01*
X117105526Y-126479930D01*
X117105914Y-126475000D01*
X117087087Y-126235778D01*
X117085933Y-126230971D01*
X117085932Y-126230965D01*
X117032224Y-126007259D01*
X117031069Y-126002447D01*
X116939240Y-125780751D01*
X116813860Y-125576151D01*
X116800309Y-125560284D01*
X116661231Y-125397444D01*
X116658018Y-125393682D01*
X116475549Y-125237840D01*
X116464800Y-125231253D01*
X119697157Y-125231253D01*
X119700941Y-125240031D01*
X120563888Y-126102978D01*
X120577832Y-126110592D01*
X120579665Y-126110461D01*
X120586280Y-126106210D01*
X121449416Y-125243074D01*
X121456176Y-125230694D01*
X121450449Y-125223044D01*
X121274941Y-125115493D01*
X121266147Y-125111012D01*
X121053671Y-125023002D01*
X121044286Y-125019953D01*
X120820656Y-124966263D01*
X120810909Y-124964720D01*
X120581630Y-124946675D01*
X120571770Y-124946675D01*
X120342491Y-124964720D01*
X120332744Y-124966263D01*
X120109114Y-125019953D01*
X120099729Y-125023002D01*
X119887253Y-125111012D01*
X119878459Y-125115493D01*
X119706617Y-125220797D01*
X119697157Y-125231253D01*
X116464800Y-125231253D01*
X116270949Y-125112460D01*
X116266379Y-125110567D01*
X116266377Y-125110566D01*
X116053826Y-125022525D01*
X116053824Y-125022524D01*
X116049253Y-125020631D01*
X115967663Y-125001043D01*
X115820735Y-124965768D01*
X115820729Y-124965767D01*
X115815922Y-124964613D01*
X115576700Y-124945786D01*
X115337478Y-124964613D01*
X115332671Y-124965767D01*
X115332665Y-124965768D01*
X115185737Y-125001043D01*
X115104147Y-125020631D01*
X115099576Y-125022524D01*
X115099574Y-125022525D01*
X114887023Y-125110566D01*
X114887021Y-125110567D01*
X114882451Y-125112460D01*
X114677851Y-125237840D01*
X114495382Y-125393682D01*
X114492169Y-125397444D01*
X114353092Y-125560284D01*
X114339540Y-125576151D01*
X114214160Y-125780751D01*
X114122331Y-126002447D01*
X114121176Y-126007259D01*
X114067468Y-126230965D01*
X114067467Y-126230971D01*
X114066313Y-126235778D01*
X114047486Y-126475000D01*
X100508500Y-126475000D01*
X100508500Y-106972634D01*
X104386875Y-106972634D01*
X104387064Y-106976427D01*
X104388237Y-107000000D01*
X104398572Y-107207577D01*
X104402514Y-107286765D01*
X104403155Y-107290496D01*
X104403156Y-107290504D01*
X104455133Y-107592997D01*
X104455135Y-107593005D01*
X104455777Y-107596742D01*
X104456865Y-107600381D01*
X104456866Y-107600384D01*
X104507048Y-107768179D01*
X104545895Y-107898075D01*
X104671561Y-108186399D01*
X104673484Y-108189670D01*
X104673486Y-108189674D01*
X104712197Y-108255523D01*
X104830955Y-108457537D01*
X104833256Y-108460552D01*
X105019469Y-108704550D01*
X105019474Y-108704555D01*
X105021769Y-108707563D01*
X105241238Y-108932854D01*
X105308642Y-108987145D01*
X105483230Y-109127769D01*
X105483235Y-109127773D01*
X105486183Y-109130147D01*
X105489403Y-109132155D01*
X105749829Y-109294573D01*
X105749836Y-109294577D01*
X105753056Y-109296585D01*
X106037992Y-109429755D01*
X106041602Y-109430938D01*
X106041606Y-109430940D01*
X106276685Y-109508003D01*
X106336862Y-109527730D01*
X106645339Y-109589090D01*
X106649111Y-109589377D01*
X106649119Y-109589378D01*
X106955176Y-109612659D01*
X106955181Y-109612659D01*
X106958953Y-109612946D01*
X107273161Y-109598952D01*
X107276899Y-109598330D01*
X107276907Y-109598329D01*
X107427897Y-109573197D01*
X107583412Y-109547312D01*
X107885213Y-109458774D01*
X108174191Y-109334619D01*
X108177468Y-109332715D01*
X108177475Y-109332712D01*
X108335231Y-109241079D01*
X108446160Y-109176646D01*
X108535099Y-109109504D01*
X108694156Y-108989430D01*
X108694162Y-108989425D01*
X108697182Y-108987145D01*
X108923619Y-108768858D01*
X109122192Y-108524950D01*
X109271979Y-108287551D01*
X109288001Y-108262158D01*
X109288004Y-108262152D01*
X109290024Y-108258951D01*
X109424685Y-107974717D01*
X109524223Y-107676364D01*
X109587197Y-107368213D01*
X109612695Y-107054728D01*
X109613268Y-107000000D01*
X184486540Y-107000000D01*
X184506359Y-107315020D01*
X184565505Y-107625072D01*
X184566732Y-107628848D01*
X184655339Y-107901551D01*
X184663044Y-107925266D01*
X184664731Y-107928852D01*
X184664733Y-107928856D01*
X184795750Y-108207283D01*
X184795754Y-108207290D01*
X184797438Y-108210869D01*
X184966568Y-108477375D01*
X185167767Y-108720582D01*
X185397860Y-108936654D01*
X185653221Y-109122184D01*
X185656690Y-109124091D01*
X185656693Y-109124093D01*
X185671358Y-109132155D01*
X185929821Y-109274247D01*
X185933490Y-109275700D01*
X185933495Y-109275702D01*
X186219628Y-109388990D01*
X186223298Y-109390443D01*
X186529025Y-109468940D01*
X186842179Y-109508500D01*
X187157821Y-109508500D01*
X187470975Y-109468940D01*
X187776702Y-109390443D01*
X187780372Y-109388990D01*
X188066505Y-109275702D01*
X188066510Y-109275700D01*
X188070179Y-109274247D01*
X188328642Y-109132155D01*
X188343307Y-109124093D01*
X188343310Y-109124091D01*
X188346779Y-109122184D01*
X188602140Y-108936654D01*
X188832233Y-108720582D01*
X189033432Y-108477375D01*
X189202562Y-108210869D01*
X189204246Y-108207290D01*
X189204250Y-108207283D01*
X189335267Y-107928856D01*
X189335269Y-107928852D01*
X189336956Y-107925266D01*
X189344662Y-107901551D01*
X189433268Y-107628848D01*
X189434495Y-107625072D01*
X189493641Y-107315020D01*
X189513460Y-107000000D01*
X189493641Y-106684980D01*
X189434495Y-106374928D01*
X189336956Y-106074734D01*
X189327357Y-106054334D01*
X189204250Y-105792717D01*
X189204246Y-105792710D01*
X189202562Y-105789131D01*
X189033432Y-105522625D01*
X188832233Y-105279418D01*
X188821278Y-105269130D01*
X188793001Y-105242577D01*
X188602140Y-105063346D01*
X188346779Y-104877816D01*
X188300079Y-104852142D01*
X188073648Y-104727660D01*
X188073647Y-104727659D01*
X188070179Y-104725753D01*
X188066510Y-104724300D01*
X188066505Y-104724298D01*
X187780372Y-104611010D01*
X187780371Y-104611010D01*
X187776702Y-104609557D01*
X187470975Y-104531060D01*
X187157821Y-104491500D01*
X186842179Y-104491500D01*
X186529025Y-104531060D01*
X186223298Y-104609557D01*
X186219629Y-104611010D01*
X186219628Y-104611010D01*
X185933495Y-104724298D01*
X185933490Y-104724300D01*
X185929821Y-104725753D01*
X185926353Y-104727659D01*
X185926352Y-104727660D01*
X185699922Y-104852142D01*
X185653221Y-104877816D01*
X185397860Y-105063346D01*
X185206999Y-105242577D01*
X185178723Y-105269130D01*
X185167767Y-105279418D01*
X184966568Y-105522625D01*
X184797438Y-105789131D01*
X184795754Y-105792710D01*
X184795750Y-105792717D01*
X184672643Y-106054334D01*
X184663044Y-106074734D01*
X184565505Y-106374928D01*
X184506359Y-106684980D01*
X184488833Y-106963559D01*
X184486540Y-107000000D01*
X109613268Y-107000000D01*
X109613030Y-106996043D01*
X109594569Y-106689828D01*
X109594569Y-106689824D01*
X109594341Y-106686050D01*
X109588703Y-106655181D01*
X109538514Y-106380370D01*
X109538513Y-106380366D01*
X109537834Y-106376648D01*
X109536128Y-106371152D01*
X109445688Y-106079891D01*
X109444566Y-106076276D01*
X109315887Y-105789283D01*
X109153663Y-105519829D01*
X109151336Y-105516845D01*
X109151331Y-105516838D01*
X108962572Y-105274803D01*
X108962566Y-105274796D01*
X108960241Y-105271815D01*
X108738425Y-105048834D01*
X108491428Y-104854117D01*
X108222826Y-104690484D01*
X108044837Y-104609557D01*
X107939963Y-104561873D01*
X107939955Y-104561870D01*
X107936511Y-104560304D01*
X107636631Y-104465464D01*
X107499363Y-104439651D01*
X107331253Y-104408038D01*
X107331248Y-104408037D01*
X107327529Y-104407338D01*
X107013683Y-104386768D01*
X107009903Y-104386976D01*
X107009902Y-104386976D01*
X106918331Y-104392016D01*
X106699638Y-104404051D01*
X106695911Y-104404712D01*
X106695907Y-104404712D01*
X106586248Y-104424147D01*
X106389945Y-104458937D01*
X106386329Y-104460039D01*
X106386321Y-104460041D01*
X106092712Y-104549526D01*
X106092705Y-104549529D01*
X106089088Y-104550631D01*
X105801426Y-104677805D01*
X105798172Y-104679741D01*
X105798166Y-104679744D01*
X105717627Y-104727660D01*
X105531125Y-104838617D01*
X105528124Y-104840932D01*
X105528120Y-104840935D01*
X105437008Y-104911228D01*
X105282102Y-105030737D01*
X105057963Y-105251382D01*
X105041681Y-105271815D01*
X104864321Y-105494388D01*
X104864315Y-105494397D01*
X104861956Y-105497357D01*
X104696918Y-105765098D01*
X104565241Y-106050727D01*
X104468833Y-106350107D01*
X104468114Y-106353823D01*
X104468112Y-106353831D01*
X104409808Y-106655181D01*
X104409807Y-106655190D01*
X104409089Y-106658900D01*
X104408822Y-106662676D01*
X104408821Y-106662681D01*
X104387143Y-106968845D01*
X104386875Y-106972634D01*
X100508500Y-106972634D01*
X100508500Y-100634500D01*
X100528502Y-100566379D01*
X100582158Y-100519886D01*
X100634500Y-100508500D01*
X193365500Y-100508500D01*
X193433621Y-100528502D01*
G37*
%TD.AperFunction*%
%TD*%
M02*
